<svg xmlns="http://www.w3.org/2000/svg" viewBox="0 0 64 64" role="img" aria-label="symbol placeholder">
  <defs>
    <linearGradient id="g" x1="0%" y1="0%" x2="100%" y2="100%">
      <stop offset="0%" stop-color="#d6d9e1"/>
      <stop offset="100%" stop-color="#b0b4c0"/>
    </linearGradient>
  </defs>
  <rect x="1" y="1" width="62" height="62" rx="12" ry="12" fill="url(#g)" stroke="#959aa7" stroke-width="2"/>
  <path d="M32 16c-8.837 0-16 7.163-16 16s7.163 16 16 16 16-7.163 16-16-7.163-16-16-16zm0 6a10 10 0 110 20 10 10 0 010-20z" fill="#6b7180"/>
  <path d="M32 22a10 10 0 00-10 10h6a4 4 0 118 0h6a10 10 0 00-10-10z" fill="#f7f8fa" opacity="0.6"/>
</svg>
